<svg width="46" height="30" viewBox="0 0 46 30" fill="none" xmlns="http://www.w3.org/2000/svg">
<g id="Group 10">
<circle id="Ellipse 3" cx="15" cy="15" r="14" fill="#09090B" stroke="#EA580C" stroke-width="2"/>
<path id="Arrow 3" d="M44.5 16C45.0523 16 45.5 15.5523 45.5 15C45.5 14.4477 45.0523 14 44.5 14L44.5 16ZM8.79289 14.2929C8.40237 14.6834 8.40237 15.3166 8.79289 15.7071L15.1569 22.0711C15.5474 22.4616 16.1805 22.4616 16.5711 22.0711C16.9616 21.6805 16.9616 21.0474 16.5711 20.6569L10.9142 15L16.5711 9.34315C16.9616 8.95262 16.9616 8.31946 16.5711 7.92893C16.1805 7.53841 15.5474 7.53841 15.1569 7.92893L8.79289 14.2929ZM44.5 14L9.5 14L9.5 16L44.5 16L44.5 14Z" fill="white"/>
</g>
</svg>
